<svg xmlns="http://www.w3.org/2000/svg" xmlns:xlink="http://www.w3.org/1999/xlink" width="500" zoomAndPan="magnify" viewBox="0 0 375 374.999991" height="500" preserveAspectRatio="xMidYMid meet" version="1.0"><defs><filter x="0%" y="0%" width="100%" height="100%" id="9b3ea89b38"><feColorMatrix values="0 0 0 0 1 0 0 0 0 1 0 0 0 0 1 0 0 0 1 0" color-interpolation-filters="sRGB"/></filter><mask id="64443f01a2"><g filter="url(#9b3ea89b38)"><rect x="-37.5" width="450" fill="#000000" y="-37.499999" height="449.999989" fill-opacity="0.46"/></g></mask><clipPath id="76e644dfc6"><path d="M 0.460938 0.238281 L 302.710938 0.238281 L 302.710938 309 L 0.460938 309 Z M 0.460938 0.238281 " clip-rule="nonzero"/></clipPath><clipPath id="def2e39fe1"><rect x="0" width="305" y="0" height="309"/></clipPath><clipPath id="3ed384a5ba"><path d="M 93 137 L 281.984375 137 L 281.984375 375 L 93 375 Z M 93 137 " clip-rule="nonzero"/></clipPath><clipPath id="9eb0708417"><path d="M 129 18.902344 L 246 18.902344 L 246 250 L 129 250 Z M 129 18.902344 " clip-rule="nonzero"/></clipPath><clipPath id="df3b06a460"><path d="M 183 18.902344 L 216 18.902344 L 216 66 L 183 66 Z M 183 18.902344 " clip-rule="nonzero"/></clipPath></defs><g mask="url(#64443f01a2)"><g transform="matrix(1, 0, 0, 1, 36, 66)"><g clip-path="url(#def2e39fe1)"><g clip-path="url(#76e644dfc6)"><path fill="#ffffff" d="M 302.589844 308.789062 L 0.460938 308.789062 L 0.460938 151.515625 C 0.460938 68.078125 68.089844 0.449219 151.527344 0.449219 C 234.960938 0.449219 302.589844 68.078125 302.589844 151.515625 Z M 302.589844 308.789062 " fill-opacity="1" fill-rule="nonzero"/></g></g></g></g><path fill="#934d36" d="M 158.164062 83.144531 C 174.144531 74.152344 208.652344 73.414062 222.289062 82.746094 C 244.96875 98.265625 246.648438 150.292969 248.089844 166.660156 C 248.941406 176.335938 235.195312 200.300781 216.652344 202.253906 C 208.605469 203.101562 196.011719 198.652344 195.972656 187.609375 C 195.933594 175.929688 221.496094 170.667969 230.164062 164.453125 C 228.242188 150.765625 222.289062 134.875 221.488281 136.480469 C 220.6875 138.085938 215.476562 164.550781 215.476562 164.550781 C 203.199219 168.453125 189.433594 143.203125 171.675781 142.875 C 163.484375 142.726562 155.996094 158.164062 149.429688 166.214844 C 149.429688 166.214844 160.078125 176.558594 168.835938 180.648438 C 172.136719 182.191406 181.105469 182.894531 182.671875 187.6875 C 184.3125 192.699219 160.546875 192.789062 179.0625 205.09375 C 183.496094 208.042969 165.414062 212.113281 162.972656 212.625 C 151.214844 215.097656 138.992188 191.582031 132.1875 182.898438 C 125.015625 173.746094 128.605469 156.480469 131.164062 143.644531 C 135.480469 121.984375 146.230469 90.132812 158.164062 83.144531 Z M 158.164062 83.144531 " fill-opacity="0.987" fill-rule="nonzero"/><path fill="#ffffff" d="M 163.960938 160.882812 C 182.714844 159.203125 197.34375 160.703125 216.039062 162 C 215.671875 163.84375 217.707031 165.199219 218.320312 166.878906 C 201.726562 170.90625 178.984375 168.175781 161.398438 166.484375 C 162.15625 164.472656 164.46875 163.449219 163.960938 160.882812 Z M 163.960938 160.882812 " fill-opacity="0.99" fill-rule="nonzero"/><path fill="#113544" d="M 214.386719 201.382812 C 214.214844 201.480469 216.792969 202.230469 216.816406 204.769531 C 216.878906 210.570312 230.019531 236.4375 232.800781 252.714844 C 235.582031 268.988281 247.417969 292.707031 249.507812 316.175781 C 250.472656 326.984375 250.628906 338.09375 250.984375 348.074219 C 259.246094 340.820312 269.476562 339.859375 275.796875 339.054688 C 270.398438 325.488281 264.027344 309.839844 258.585938 294.425781 C 248.710938 266.453125 223.644531 223.113281 220.5 210.464844 C 218.730469 203.351562 214.605469 201.257812 214.386719 201.382812 Z M 214.386719 201.382812 " fill-opacity="0.99" fill-rule="nonzero"/><g clip-path="url(#3ed384a5ba)"><path fill="#a0543b" d="M 151.8125 137.511719 C 159.042969 184.476562 121.75 268.5 116.871094 281.976562 C 104.421875 316.351562 83.082031 353.484375 98.894531 360.050781 C 125.019531 370.902344 117.414062 359.160156 144.089844 371.859375 C 158.003906 378.484375 230.207031 376.390625 245.964844 353.714844 C 258.5625 335.578125 281.300781 341.253906 281.691406 336.828125 C 275.132812 290.601562 218.640625 156.390625 224.550781 139.257812 Z M 151.8125 137.511719 " fill-opacity="0.99" fill-rule="nonzero"/></g><path fill="#954e35" d="M 128.960938 317.003906 C 122.929688 331.589844 115.671875 359.441406 112.023438 364.453125 C 123.324219 366.902344 123.324219 361.980469 144.089844 371.867188 C 145.484375 372.53125 147.492188 373.101562 149.945312 373.578125 C 150.855469 369.089844 151.144531 362.683594 151.710938 353.726562 C 152.875 335.285156 155.199219 306.039062 157.023438 283.273438 C 158.851562 260.507812 163.167969 189.390625 163.335938 180.085938 C 163.445312 173.976562 136.929688 297.730469 128.960938 317.003906 Z M 128.960938 317.003906 " fill-opacity="1" fill-rule="nonzero"/><path fill="#954e35" d="M 212.527344 178.789062 C 212.332031 178.820312 212.222656 179.160156 212.160156 179.753906 C 211.828125 182.910156 212.824219 193.210938 215.480469 208.832031 C 218.136719 224.449219 222.953125 251.867188 227.769531 276.960938 C 232.585938 302.050781 237.898438 331.296875 241.554688 347.414062 C 242.367188 351.007812 243.101562 353.921875 243.816406 356.320312 C 244.613281 355.484375 245.339844 354.621094 245.964844 353.71875 C 253.835938 342.386719 265.667969 340.351562 273.53125 339.339844 C 272.402344 327.453125 267.464844 311.230469 259.65625 290.917969 C 248.859375 262.835938 232.089844 220.464844 223.121094 200.523438 C 215.835938 184.320312 213.371094 178.652344 212.527344 178.789062 Z M 212.527344 178.789062 " fill-opacity="1" fill-rule="nonzero"/><path fill="#d9b99e" d="M 170.609375 154.070312 C 176.65625 163.890625 189.507812 181.910156 202.128906 195.808594 C 214.75 209.710938 227.144531 219.488281 233.246094 223.667969 C 239.34375 227.847656 239.152344 226.433594 239.078125 225.019531 C 239.003906 223.605469 239.046875 222.195312 235.945312 219.753906 C 232.847656 217.308594 226.609375 213.828125 218.609375 206.417969 C 210.609375 199.003906 200.847656 187.660156 194.273438 179.703125 C 187.699219 171.746094 184.3125 167.179688 180.144531 161.292969 C 175.972656 155.40625 171.019531 148.203125 168.167969 145.414062 C 165.316406 142.625 164.5625 144.246094 170.609375 154.070312 Z M 170.609375 154.070312 " fill-opacity="1" fill-rule="nonzero"/><path fill="#d9b99e" d="M 229.042969 218.789062 C 230.804688 216.027344 236.910156 214.382812 239.464844 212.621094 C 242.019531 210.859375 241.019531 208.976562 243.339844 210.445312 C 245.660156 211.914062 251.296875 216.734375 254.992188 222.371094 C 258.691406 228.011719 260.453125 234.476562 261.042969 239 C 261.628906 243.523438 261.042969 246.105469 259.398438 248.164062 C 257.753906 250.21875 255.054688 251.746094 250.769531 252.90625 C 246.484375 254.0625 240.617188 254.851562 237.875 253.179688 C 235.136719 251.507812 235.527344 247.375 235.144531 242.984375 C 234.757812 238.59375 233.605469 233.949219 231.734375 229.6875 C 229.863281 225.425781 227.28125 221.550781 229.042969 218.789062 Z M 229.042969 218.789062 " fill-opacity="1" fill-rule="nonzero"/><path fill="#e4d0bd" d="M 242.113281 209.917969 C 241.296875 209.910156 241.378906 211.296875 239.464844 212.621094 C 236.9375 214.363281 230.941406 215.992188 229.105469 218.699219 C 229.917969 220.050781 231.679688 222.03125 233.183594 224.722656 C 234.855469 227.71875 236.207031 231.597656 237.703125 233.945312 C 239.199219 236.296875 240.84375 237.117188 243.046875 236.882812 C 245.246094 236.648438 248.007812 235.355469 250.238281 234.0625 C 252.46875 232.769531 254.171875 231.480469 255.257812 230.363281 C 256.34375 229.246094 256.8125 228.304688 257.050781 226.808594 C 257.082031 226.59375 257.109375 226.363281 257.132812 226.125 C 256.503906 224.851562 255.792969 223.59375 254.992188 222.371094 C 251.296875 216.734375 245.660156 211.914062 243.339844 210.445312 C 242.757812 210.078125 242.386719 209.921875 242.113281 209.917969 Z M 242.113281 209.917969 " fill-opacity="1" fill-rule="nonzero"/><path fill="#f8f2ed" d="M 248.425781 232.03125 C 247.761719 231.550781 247.527344 230.628906 247.789062 229.988281 C 248.050781 229.347656 248.808594 228.988281 249.535156 228.988281 C 250.265625 228.988281 250.964844 229.355469 251.25 230.015625 C 251.535156 230.675781 251.40625 231.632812 250.796875 232.09375 C 250.1875 232.550781 249.089844 232.511719 248.425781 232.03125 Z M 248.425781 232.03125 " fill-opacity="1" fill-rule="nonzero"/><g clip-path="url(#9eb0708417)"><path fill="#e4cfbd" d="M 191.328125 18.910156 C 190.238281 18.886719 189.140625 18.988281 188.042969 19.222656 C 179.261719 21.097656 170.445312 31.464844 167.144531 41.394531 C 163.847656 51.324219 166.066406 60.824219 161.246094 71.4375 C 156.425781 82.050781 144.566406 93.777344 140.199219 103.230469 C 135.832031 112.683594 125.667969 126.507812 130.4375 139.925781 C 131.667969 143.382812 133.011719 147.261719 134.457031 151.351562 C 138.644531 163.179688 178.074219 250.941406 188.605469 249.335938 C 197.636719 247.960938 229.835938 189.453125 238.480469 163.628906 C 239.542969 160.613281 247.214844 139.535156 245.570312 127.3125 C 242.871094 107.210938 232.4375 94.886719 218.566406 72.792969 C 212.027344 62.382812 213.828125 46.125 209.703125 35.042969 C 206.09375 25.347656 198.941406 19.074219 191.328125 18.910156 Z M 191.328125 18.910156 " fill-opacity="0.99" fill-rule="nonzero"/></g><g clip-path="url(#df3b06a460)"><path fill="#eee0d4" d="M 191.328125 18.910156 C 190.238281 18.886719 189.140625 18.988281 188.042969 19.222656 C 186.472656 19.558594 184.902344 20.167969 183.363281 20.996094 C 185.753906 21.511719 188.777344 22.195312 191.410156 23.335938 C 194.929688 24.863281 197.75 27.214844 200.449219 30.972656 C 203.152344 34.734375 205.734375 39.902344 208.199219 46.601562 C 210.667969 53.296875 212.339844 61.492188 215.160156 65.253906 C 215.210938 65.324219 215.265625 65.390625 215.316406 65.457031 C 212.671875 55.464844 212.984375 43.859375 209.703125 35.042969 C 206.09375 25.347656 198.941406 19.074219 191.328125 18.910156 Z M 191.328125 18.910156 " fill-opacity="1" fill-rule="nonzero"/></g><path fill="#a0553b" d="M 204.277344 33.644531 C 204.082031 33.742188 203.714844 34.246094 203.132812 34.371094 C 202.546875 34.496094 201.75 34.238281 201.273438 33.761719 C 200.796875 33.28125 200.644531 32.585938 200.710938 32.128906 C 200.773438 31.671875 201.050781 31.460938 201.289062 31.25 C 201.523438 31.039062 201.714844 30.832031 201.546875 30.53125 C 201.378906 30.234375 200.851562 29.835938 200.800781 29.304688 C 200.75 28.773438 201.175781 28.105469 201.617188 27.859375 C 202.054688 27.609375 202.511719 27.78125 202.789062 27.820312 C 203.066406 27.859375 203.171875 27.761719 203.273438 27.539062 C 203.375 27.3125 203.476562 26.960938 203.761719 26.71875 C 204.046875 26.472656 204.515625 26.335938 204.875 26.410156 C 205.238281 26.480469 205.496094 26.765625 205.625 26.90625 C 205.757812 27.046875 205.792969 27.382812 206.082031 27.199219 C 206.371094 27.011719 206.953125 26.644531 207.554688 26.777344 C 208.15625 26.914062 208.78125 27.550781 208.835938 28.152344 C 208.890625 28.753906 208.375 29.3125 208.449219 29.65625 C 208.527344 30 209.195312 30.121094 209.453125 30.625 C 209.714844 31.125 209.566406 32.007812 209.125 32.375 C 208.683594 32.742188 207.949219 32.601562 207.734375 32.835938 C 207.523438 33.066406 207.832031 33.675781 207.570312 34.15625 C 207.308594 34.636719 206.476562 34.988281 205.871094 34.96875 C 205.261719 34.949219 204.886719 34.558594 204.6875 34.207031 C 204.488281 33.855469 204.46875 33.546875 204.277344 33.644531 Z M 204.277344 33.644531 " fill-opacity="0.992" fill-rule="nonzero"/><path fill="#84452f" d="M 203.390625 29.484375 C 203.351562 29.402344 203.273438 29.242188 203.335938 28.953125 C 203.398438 28.667969 203.601562 28.253906 203.949219 28.050781 C 204.300781 27.851562 204.792969 27.867188 205.097656 28.015625 C 205.40625 28.160156 205.527344 28.4375 205.71875 28.488281 C 205.910156 28.535156 206.171875 28.355469 206.523438 28.382812 C 206.878906 28.40625 207.324219 28.636719 207.546875 29.019531 C 207.769531 29.398438 207.769531 29.933594 207.65625 30.261719 C 207.542969 30.589844 207.316406 30.714844 207.328125 30.878906 C 207.34375 31.042969 207.59375 31.246094 207.492188 31.632812 C 207.390625 32.019531 206.933594 32.59375 206.566406 32.722656 C 206.203125 32.855469 205.925781 32.546875 205.714844 32.546875 C 205.507812 32.550781 205.363281 32.871094 205.066406 33.039062 C 204.769531 33.207031 204.320312 33.226562 203.96875 33.117188 C 203.621094 33.003906 203.375 32.761719 203.269531 32.542969 C 203.164062 32.324219 203.203125 32.128906 203.179688 31.992188 C 203.152344 31.851562 203.0625 31.773438 202.84375 31.71875 C 202.621094 31.660156 202.265625 31.632812 202.113281 31.253906 C 201.960938 30.871094 202.007812 30.144531 202.261719 29.804688 C 202.515625 29.46875 202.972656 29.515625 203.199219 29.539062 C 203.429688 29.566406 203.429688 29.566406 203.390625 29.484375 Z M 203.390625 29.484375 " fill-opacity="1" fill-rule="nonzero"/><path fill="#ddb1a1" d="M 206.078125 30.410156 C 206.09375 30.554688 206.082031 30.695312 206.042969 30.832031 C 206.003906 30.96875 205.9375 31.09375 205.851562 31.203125 C 205.761719 31.316406 205.652344 31.40625 205.527344 31.472656 C 205.40625 31.542969 205.269531 31.585938 205.128906 31.601562 C 204.988281 31.617188 204.847656 31.605469 204.710938 31.566406 C 204.574219 31.527344 204.449219 31.460938 204.339844 31.371094 C 204.226562 31.285156 204.136719 31.175781 204.066406 31.050781 C 204 30.925781 203.957031 30.792969 203.941406 30.652344 C 203.925781 30.507812 203.9375 30.371094 203.976562 30.234375 C 204.015625 30.097656 204.078125 29.972656 204.167969 29.859375 C 204.257812 29.75 204.363281 29.65625 204.488281 29.589844 C 204.613281 29.519531 204.75 29.476562 204.890625 29.460938 C 205.03125 29.445312 205.171875 29.457031 205.308594 29.496094 C 205.445312 29.539062 205.570312 29.601562 205.679688 29.691406 C 205.792969 29.78125 205.882812 29.886719 205.953125 30.011719 C 206.019531 30.136719 206.0625 30.269531 206.078125 30.410156 Z M 206.078125 30.410156 " fill-opacity="1" fill-rule="nonzero"/><path fill="#a0553a" d="M 204.667969 30.1875 C 204.679688 30.269531 204.640625 30.3125 204.5625 30.324219 C 204.480469 30.332031 204.433594 30.296875 204.425781 30.214844 C 204.417969 30.132812 204.453125 30.085938 204.535156 30.078125 C 204.613281 30.070312 204.660156 30.105469 204.667969 30.1875 Z M 204.667969 30.1875 " fill-opacity="0.992" fill-rule="nonzero"/><path fill="#a0553a" d="M 204.90625 29.820312 C 204.914062 29.902344 204.878906 29.945312 204.796875 29.957031 C 204.714844 29.964844 204.671875 29.929688 204.660156 29.847656 C 204.652344 29.765625 204.6875 29.722656 204.769531 29.710938 C 204.851562 29.703125 204.894531 29.738281 204.90625 29.820312 Z M 204.90625 29.820312 " fill-opacity="0.992" fill-rule="nonzero"/><path fill="#a0553a" d="M 205.113281 30.160156 C 205.121094 30.238281 205.085938 30.285156 205.003906 30.292969 C 204.921875 30.304688 204.878906 30.265625 204.867188 30.1875 C 204.859375 30.105469 204.894531 30.058594 204.976562 30.050781 C 205.058594 30.042969 205.101562 30.078125 205.113281 30.160156 Z M 205.113281 30.160156 " fill-opacity="0.992" fill-rule="nonzero"/><path fill="#a0553b" d="M 195 35.40625 C 194.804688 35.503906 194.4375 36.007812 193.855469 36.132812 C 193.273438 36.257812 192.472656 36 191.996094 35.523438 C 191.523438 35.046875 191.371094 34.347656 191.433594 33.890625 C 191.496094 33.433594 191.777344 33.222656 192.011719 33.011719 C 192.246094 32.800781 192.4375 32.597656 192.269531 32.296875 C 192.101562 31.996094 191.574219 31.601562 191.527344 31.066406 C 191.476562 30.535156 191.902344 29.867188 192.339844 29.621094 C 192.78125 29.371094 193.234375 29.546875 193.515625 29.582031 C 193.792969 29.621094 193.894531 29.523438 194 29.300781 C 194.101562 29.078125 194.203125 28.722656 194.488281 28.480469 C 194.773438 28.234375 195.238281 28.097656 195.601562 28.171875 C 195.964844 28.242188 196.222656 28.527344 196.351562 28.667969 C 196.480469 28.808594 196.519531 29.144531 196.808594 28.960938 C 197.097656 28.777344 197.675781 28.40625 198.277344 28.539062 C 198.882812 28.675781 199.507812 29.3125 199.5625 29.914062 C 199.617188 30.515625 199.097656 31.078125 199.175781 31.417969 C 199.25 31.761719 199.917969 31.882812 200.179688 32.386719 C 200.441406 32.886719 200.292969 33.769531 199.851562 34.136719 C 199.410156 34.507812 198.671875 34.363281 198.460938 34.597656 C 198.246094 34.828125 198.558594 35.4375 198.296875 35.917969 C 198.035156 36.398438 197.199219 36.75 196.59375 36.730469 C 195.988281 36.710938 195.613281 36.320312 195.414062 35.96875 C 195.214844 35.617188 195.195312 35.308594 195 35.40625 Z M 195 35.40625 " fill-opacity="0.992" fill-rule="nonzero"/><path fill="#84452f" d="M 194.113281 31.246094 C 194.074219 31.167969 193.996094 31.003906 194.058594 30.714844 C 194.121094 30.429688 194.328125 30.015625 194.675781 29.816406 C 195.023438 29.617188 195.515625 29.628906 195.824219 29.777344 C 196.132812 29.921875 196.253906 30.199219 196.441406 30.25 C 196.632812 30.296875 196.894531 30.117188 197.25 30.144531 C 197.601562 30.167969 198.050781 30.398438 198.273438 30.78125 C 198.496094 31.164062 198.496094 31.695312 198.378906 32.023438 C 198.265625 32.351562 198.039062 32.476562 198.054688 32.640625 C 198.066406 32.804688 198.320312 33.007812 198.21875 33.394531 C 198.117188 33.78125 197.660156 34.355469 197.292969 34.488281 C 196.925781 34.617188 196.652344 34.308594 196.441406 34.3125 C 196.230469 34.316406 196.085938 34.632812 195.789062 34.800781 C 195.492188 34.96875 195.042969 34.988281 194.695312 34.878906 C 194.347656 34.765625 194.097656 34.523438 193.996094 34.304688 C 193.890625 34.085938 193.929688 33.890625 193.902344 33.753906 C 193.878906 33.617188 193.789062 33.535156 193.566406 33.480469 C 193.34375 33.425781 192.992188 33.394531 192.839844 33.015625 C 192.683594 32.636719 192.734375 31.90625 192.988281 31.570312 C 193.238281 31.230469 193.695312 31.277344 193.925781 31.304688 C 194.152344 31.328125 194.152344 31.328125 194.113281 31.246094 Z M 194.113281 31.246094 " fill-opacity="1" fill-rule="nonzero"/><path fill="#ddb1a1" d="M 196.804688 32.175781 C 196.820312 32.316406 196.808594 32.457031 196.769531 32.59375 C 196.726562 32.730469 196.664062 32.855469 196.574219 32.964844 C 196.484375 33.078125 196.378906 33.167969 196.253906 33.238281 C 196.128906 33.304688 195.996094 33.347656 195.855469 33.363281 C 195.710938 33.378906 195.574219 33.367188 195.4375 33.328125 C 195.296875 33.289062 195.175781 33.222656 195.0625 33.136719 C 194.953125 33.046875 194.859375 32.9375 194.792969 32.8125 C 194.722656 32.6875 194.679688 32.554688 194.664062 32.414062 C 194.648438 32.273438 194.660156 32.132812 194.699219 31.996094 C 194.742188 31.859375 194.804688 31.734375 194.894531 31.621094 C 194.984375 31.511719 195.089844 31.421875 195.214844 31.351562 C 195.339844 31.28125 195.472656 31.242188 195.613281 31.222656 C 195.757812 31.207031 195.894531 31.21875 196.03125 31.261719 C 196.171875 31.300781 196.292969 31.363281 196.40625 31.453125 C 196.515625 31.542969 196.605469 31.648438 196.675781 31.773438 C 196.746094 31.898438 196.789062 32.03125 196.804688 32.175781 Z M 196.804688 32.175781 " fill-opacity="1" fill-rule="nonzero"/><path fill="#a0553a" d="M 195.394531 31.949219 C 195.402344 32.03125 195.367188 32.074219 195.285156 32.085938 C 195.203125 32.09375 195.160156 32.058594 195.148438 31.976562 C 195.140625 31.894531 195.175781 31.851562 195.257812 31.839844 C 195.339844 31.832031 195.382812 31.867188 195.394531 31.949219 Z M 195.394531 31.949219 " fill-opacity="0.992" fill-rule="nonzero"/><path fill="#a0553a" d="M 195.628906 31.582031 C 195.636719 31.664062 195.601562 31.707031 195.519531 31.71875 C 195.441406 31.726562 195.394531 31.691406 195.386719 31.609375 C 195.375 31.527344 195.414062 31.484375 195.492188 31.472656 C 195.574219 31.464844 195.621094 31.5 195.628906 31.582031 Z M 195.628906 31.582031 " fill-opacity="0.992" fill-rule="nonzero"/><path fill="#a0553a" d="M 195.835938 31.921875 C 195.847656 32.003906 195.808594 32.046875 195.730469 32.054688 C 195.648438 32.066406 195.601562 32.03125 195.59375 31.949219 C 195.585938 31.867188 195.621094 31.820312 195.703125 31.8125 C 195.78125 31.804688 195.828125 31.839844 195.835938 31.921875 Z M 195.835938 31.921875 " fill-opacity="0.992" fill-rule="nonzero"/><path fill="#a0553b" d="M 184.550781 35.40625 C 184.355469 35.503906 183.988281 36.007812 183.40625 36.132812 C 182.824219 36.257812 182.023438 36 181.546875 35.523438 C 181.074219 35.046875 180.921875 34.347656 180.984375 33.890625 C 181.046875 33.433594 181.328125 33.222656 181.5625 33.011719 C 181.796875 32.800781 181.988281 32.597656 181.820312 32.296875 C 181.652344 31.996094 181.125 31.601562 181.078125 31.066406 C 181.027344 30.535156 181.453125 29.867188 181.890625 29.621094 C 182.332031 29.371094 182.785156 29.546875 183.066406 29.582031 C 183.34375 29.621094 183.445312 29.523438 183.550781 29.300781 C 183.652344 29.078125 183.753906 28.722656 184.039062 28.480469 C 184.324219 28.234375 184.789062 28.097656 185.152344 28.171875 C 185.515625 28.242188 185.773438 28.527344 185.902344 28.667969 C 186.03125 28.808594 186.070312 29.144531 186.359375 28.960938 C 186.648438 28.777344 187.226562 28.40625 187.828125 28.539062 C 188.433594 28.675781 189.058594 29.3125 189.113281 29.914062 C 189.167969 30.515625 188.648438 31.078125 188.726562 31.417969 C 188.800781 31.761719 189.46875 31.882812 189.730469 32.386719 C 189.992188 32.886719 189.84375 33.769531 189.402344 34.136719 C 188.960938 34.507812 188.222656 34.363281 188.011719 34.597656 C 187.796875 34.828125 188.109375 35.4375 187.847656 35.917969 C 187.585938 36.398438 186.75 36.75 186.144531 36.730469 C 185.539062 36.710938 185.164062 36.320312 184.964844 35.96875 C 184.765625 35.617188 184.746094 35.308594 184.550781 35.40625 Z M 184.550781 35.40625 " fill-opacity="0.992" fill-rule="nonzero"/><path fill="#84452f" d="M 183.664062 31.246094 C 183.625 31.167969 183.546875 31.003906 183.609375 30.714844 C 183.671875 30.429688 183.878906 30.015625 184.226562 29.816406 C 184.574219 29.617188 185.066406 29.628906 185.375 29.777344 C 185.683594 29.921875 185.804688 30.199219 185.992188 30.25 C 186.183594 30.296875 186.445312 30.117188 186.800781 30.144531 C 187.152344 30.167969 187.601562 30.398438 187.824219 30.78125 C 188.046875 31.164062 188.046875 31.695312 187.929688 32.023438 C 187.816406 32.351562 187.589844 32.476562 187.605469 32.640625 C 187.617188 32.804688 187.871094 33.007812 187.769531 33.394531 C 187.667969 33.78125 187.210938 34.355469 186.84375 34.488281 C 186.476562 34.617188 186.203125 34.308594 185.992188 34.3125 C 185.78125 34.316406 185.636719 34.632812 185.339844 34.800781 C 185.042969 34.96875 184.59375 34.988281 184.246094 34.878906 C 183.898438 34.765625 183.648438 34.523438 183.546875 34.304688 C 183.441406 34.085938 183.480469 33.890625 183.453125 33.753906 C 183.429688 33.617188 183.339844 33.535156 183.117188 33.480469 C 182.894531 33.425781 182.542969 33.394531 182.390625 33.015625 C 182.234375 32.636719 182.285156 31.90625 182.539062 31.570312 C 182.789062 31.230469 183.246094 31.277344 183.476562 31.304688 C 183.703125 31.328125 183.703125 31.328125 183.664062 31.246094 Z M 183.664062 31.246094 " fill-opacity="1" fill-rule="nonzero"/><path fill="#ddb1a1" d="M 186.355469 32.175781 C 186.371094 32.316406 186.359375 32.457031 186.320312 32.59375 C 186.277344 32.730469 186.214844 32.855469 186.125 32.964844 C 186.035156 33.078125 185.929688 33.167969 185.804688 33.238281 C 185.679688 33.304688 185.546875 33.347656 185.40625 33.363281 C 185.261719 33.378906 185.125 33.367188 184.988281 33.328125 C 184.847656 33.289062 184.726562 33.222656 184.613281 33.136719 C 184.503906 33.046875 184.410156 32.9375 184.34375 32.8125 C 184.273438 32.6875 184.230469 32.554688 184.214844 32.414062 C 184.199219 32.273438 184.210938 32.132812 184.25 31.996094 C 184.292969 31.859375 184.355469 31.734375 184.445312 31.621094 C 184.535156 31.511719 184.640625 31.421875 184.765625 31.351562 C 184.890625 31.28125 185.023438 31.242188 185.164062 31.222656 C 185.308594 31.207031 185.445312 31.21875 185.582031 31.261719 C 185.722656 31.300781 185.84375 31.363281 185.957031 31.453125 C 186.066406 31.542969 186.15625 31.648438 186.226562 31.773438 C 186.296875 31.898438 186.339844 32.03125 186.355469 32.175781 Z M 186.355469 32.175781 " fill-opacity="1" fill-rule="nonzero"/><path fill="#a0553a" d="M 184.945312 31.949219 C 184.953125 32.03125 184.917969 32.074219 184.835938 32.085938 C 184.753906 32.09375 184.710938 32.058594 184.699219 31.976562 C 184.691406 31.894531 184.726562 31.851562 184.808594 31.839844 C 184.890625 31.832031 184.933594 31.867188 184.945312 31.949219 Z M 184.945312 31.949219 " fill-opacity="0.992" fill-rule="nonzero"/><path fill="#a0553a" d="M 185.179688 31.582031 C 185.1875 31.664062 185.152344 31.707031 185.070312 31.71875 C 184.992188 31.726562 184.945312 31.691406 184.9375 31.609375 C 184.925781 31.527344 184.964844 31.484375 185.042969 31.472656 C 185.125 31.464844 185.171875 31.5 185.179688 31.582031 Z M 185.179688 31.582031 " fill-opacity="0.992" fill-rule="nonzero"/><path fill="#a0553a" d="M 185.386719 31.921875 C 185.398438 32.003906 185.359375 32.046875 185.28125 32.054688 C 185.199219 32.066406 185.152344 32.03125 185.144531 31.949219 C 185.136719 31.867188 185.171875 31.820312 185.253906 31.8125 C 185.332031 31.804688 185.378906 31.839844 185.386719 31.921875 Z M 185.386719 31.921875 " fill-opacity="0.992" fill-rule="nonzero"/><path fill="#a0553b" d="M 174.570312 32.9375 C 174.378906 33.035156 174.007812 33.542969 173.425781 33.664062 C 172.84375 33.789062 172.042969 33.53125 171.570312 33.054688 C 171.09375 32.578125 170.941406 31.878906 171.003906 31.421875 C 171.070312 30.96875 171.347656 30.753906 171.582031 30.542969 C 171.816406 30.335938 172.007812 30.128906 171.839844 29.828125 C 171.671875 29.527344 171.148438 29.132812 171.097656 28.601562 C 171.046875 28.070312 171.472656 27.398438 171.910156 27.152344 C 172.351562 26.90625 172.804688 27.078125 173.085938 27.117188 C 173.363281 27.152344 173.464844 27.058594 173.570312 26.832031 C 173.671875 26.609375 173.773438 26.257812 174.058594 26.011719 C 174.34375 25.769531 174.808594 25.628906 175.171875 25.703125 C 175.535156 25.777344 175.792969 26.058594 175.921875 26.199219 C 176.050781 26.34375 176.089844 26.679688 176.378906 26.492188 C 176.667969 26.308594 177.246094 25.9375 177.851562 26.074219 C 178.453125 26.207031 179.078125 26.847656 179.132812 27.445312 C 179.1875 28.046875 178.671875 28.609375 178.746094 28.953125 C 178.820312 29.292969 179.488281 29.417969 179.75 29.917969 C 180.011719 30.421875 179.863281 31.300781 179.421875 31.667969 C 178.980469 32.039062 178.242188 31.894531 178.03125 32.128906 C 177.816406 32.363281 178.128906 32.972656 177.867188 33.449219 C 177.605469 33.929688 176.769531 34.28125 176.164062 34.261719 C 175.558594 34.242188 175.183594 33.851562 174.984375 33.5 C 174.785156 33.152344 174.765625 32.839844 174.570312 32.9375 Z M 174.570312 32.9375 " fill-opacity="0.992" fill-rule="nonzero"/><path fill="#84452f" d="M 173.683594 28.78125 C 173.644531 28.699219 173.566406 28.535156 173.628906 28.25 C 173.695312 27.960938 173.898438 27.546875 174.246094 27.347656 C 174.59375 27.148438 175.085938 27.164062 175.394531 27.308594 C 175.703125 27.457031 175.824219 27.734375 176.015625 27.78125 C 176.203125 27.832031 176.464844 27.652344 176.820312 27.675781 C 177.171875 27.703125 177.621094 27.933594 177.84375 28.3125 C 178.066406 28.695312 178.066406 29.226562 177.953125 29.554688 C 177.835938 29.882812 177.613281 30.007812 177.625 30.171875 C 177.636719 30.335938 177.890625 30.539062 177.789062 30.925781 C 177.6875 31.316406 177.230469 31.886719 176.863281 32.019531 C 176.496094 32.148438 176.222656 31.839844 176.011719 31.84375 C 175.800781 31.847656 175.65625 32.164062 175.359375 32.332031 C 175.0625 32.5 174.613281 32.523438 174.265625 32.410156 C 173.917969 32.296875 173.671875 32.054688 173.566406 31.835938 C 173.460938 31.617188 173.5 31.421875 173.472656 31.285156 C 173.449219 31.148438 173.359375 31.066406 173.136719 31.011719 C 172.914062 30.957031 172.5625 30.925781 172.410156 30.546875 C 172.257812 30.167969 172.304688 29.441406 172.558594 29.101562 C 172.8125 28.761719 173.265625 28.8125 173.496094 28.835938 C 173.722656 28.859375 173.722656 28.859375 173.683594 28.78125 Z M 173.683594 28.78125 " fill-opacity="1" fill-rule="nonzero"/><path fill="#ddb1a1" d="M 176.375 29.707031 C 176.390625 29.847656 176.378906 29.988281 176.339844 30.125 C 176.300781 30.261719 176.234375 30.386719 176.144531 30.5 C 176.054688 30.609375 175.949219 30.699219 175.824219 30.769531 C 175.699219 30.839844 175.566406 30.878906 175.425781 30.894531 C 175.28125 30.914062 175.144531 30.898438 175.007812 30.859375 C 174.871094 30.820312 174.746094 30.757812 174.632812 30.667969 C 174.523438 30.578125 174.433594 30.472656 174.363281 30.347656 C 174.292969 30.222656 174.25 30.089844 174.234375 29.945312 C 174.21875 29.804688 174.230469 29.664062 174.273438 29.527344 C 174.3125 29.390625 174.375 29.265625 174.464844 29.15625 C 174.554688 29.042969 174.660156 28.953125 174.785156 28.882812 C 174.910156 28.816406 175.042969 28.773438 175.183594 28.757812 C 175.328125 28.742188 175.464844 28.753906 175.605469 28.792969 C 175.742188 28.832031 175.863281 28.894531 175.976562 28.984375 C 176.089844 29.074219 176.179688 29.179688 176.246094 29.304688 C 176.316406 29.429688 176.359375 29.566406 176.375 29.707031 Z M 176.375 29.707031 " fill-opacity="1" fill-rule="nonzero"/><path fill="#a0553a" d="M 174.964844 29.480469 C 174.972656 29.5625 174.9375 29.609375 174.855469 29.617188 C 174.773438 29.625 174.730469 29.589844 174.722656 29.507812 C 174.710938 29.429688 174.746094 29.382812 174.828125 29.375 C 174.910156 29.363281 174.957031 29.402344 174.964844 29.480469 Z M 174.964844 29.480469 " fill-opacity="0.992" fill-rule="nonzero"/><path fill="#a0553a" d="M 175.199219 29.113281 C 175.210938 29.195312 175.171875 29.242188 175.089844 29.25 C 175.011719 29.257812 174.964844 29.222656 174.957031 29.140625 C 174.949219 29.0625 174.984375 29.015625 175.066406 29.007812 C 175.144531 28.996094 175.191406 29.035156 175.199219 29.113281 Z M 175.199219 29.113281 " fill-opacity="0.992" fill-rule="nonzero"/><path fill="#a0553a" d="M 175.40625 29.453125 C 175.417969 29.535156 175.382812 29.578125 175.300781 29.589844 C 175.21875 29.597656 175.171875 29.5625 175.164062 29.480469 C 175.15625 29.398438 175.191406 29.355469 175.273438 29.34375 C 175.355469 29.335938 175.398438 29.371094 175.40625 29.453125 Z M 175.40625 29.453125 " fill-opacity="0.992" fill-rule="nonzero"/><path fill="#e0c5ae" d="M 141.425781 100.867188 C 140.976562 101.667969 140.554688 102.460938 140.199219 103.230469 C 135.832031 112.683594 125.667969 126.507812 130.4375 139.925781 C 131.667969 143.382812 133.011719 147.261719 134.457031 151.351562 C 138.644531 163.179688 178.074219 250.941406 188.605469 249.335938 C 188.980469 249.28125 189.398438 249.117188 189.847656 248.871094 C 188.570312 246.628906 186.46875 243.355469 183.464844 238.109375 C 176.765625 226.421875 165.808594 205.269531 157.285156 186.992188 C 148.761719 168.714844 142.671875 153.320312 139.847656 142.078125 C 137.027344 130.835938 137.46875 123.746094 138.742188 115.4375 C 139.480469 110.621094 140.484375 105.476562 141.425781 100.867188 Z M 141.425781 100.867188 " fill-opacity="1" fill-rule="nonzero"/><path fill="#e0c5ae" d="M 178.980469 80.34375 C 178.203125 80.203125 176.589844 87.148438 174.773438 97.273438 C 172.449219 110.234375 169.792969 128.398438 172.117188 156.199219 C 174.441406 184 181.746094 221.4375 186.398438 241.820312 C 187.050781 244.6875 187.648438 247.175781 188.191406 249.34375 C 188.332031 249.351562 188.472656 249.355469 188.605469 249.335938 C 189.378906 249.21875 190.328125 248.671875 191.414062 247.773438 C 191.308594 246.425781 191.191406 244.984375 191.046875 243.371094 C 189.054688 221.21875 183.078125 173.589844 180.75 140.25 C 178.425781 106.910156 179.753906 87.859375 179.421875 82.210938 C 179.351562 80.976562 179.199219 80.378906 178.980469 80.34375 Z M 178.980469 80.34375 " fill-opacity="1" fill-rule="nonzero"/></svg>